# xmcd CD database file
#
# Track frame offsets:
#	182
#	15332
#	31785
#	46655
#	61617
#	75147
#	89052
#	102965
#	116067
#	131277
#	145087
#	153830
#	168712
#	188765
#	202972
#	213355
#	226850
#	248060
#	262352
#	276335
#	289770
#	301587
#	315512
#
# Disc length: 4388 seconds
#
# Revision: 0
# Processed by: cddbd v1.4PL0 Copyright (c) Steve Scherf et al.
# Submitted via: CDex 1.50
#
DISCID=28112217
DTITLE=Benny Carter - Re bop boogie
DYEAR=1990
DGENRE=Jazz
TTITLE0=Benny Carter - Good my blues
TTITLE1=Benny Carter - Love you're not the one for me
TTITLE2=Benny Carter - Pastoral
TTITLE3=Benny Carter - Stardust
TTITLE4=Benny Carter - Waltzin'the blues
TTITLE5=Benny Carter - Gin and Jive
TTITLE6=Benny Carter - Sweet Georgia Brown
TTITLE7=Benny Carter - My Buddy
TTITLE8=Benny Carter - Farewell blues
TTITLE9=Benny Carter - Sleep
TTITLE10=Benny Carter - There'll be some change made
TTITLE11=Benny Carter - Rockin'chair
TTITLE12=Benny Carter - Jump tune
TTITLE13=Benny Carter - Poinciana
TTITLE14=Benny Carter - Somebody love me
TTITLE15=Benny Carter - Early boyd
TTITLE16=Benny Carter - Stardust (radio)
TTITLE17=Benny Carter - Jubilee stomp
TTITLE18=Benny Carter - Who's sorry now
TTITLE19=Benny Carter - Rose room
TTITLE20=Benny Carter - Lady be good
TTITLE21=Benny Carter - Re bop boogie
TTITLE22=Benny Carter - I can't get started
EXTD=YEAR: 1990
EXTT0=
EXTT1=
EXTT2=
EXTT3=
EXTT4=
EXTT5=
EXTT6=
EXTT7=
EXTT8=
EXTT9=
EXTT10=
EXTT11=
EXTT12=
EXTT13=
EXTT14=
EXTT15=
EXTT16=
EXTT17=
EXTT18=
EXTT19=
EXTT20=
EXTT21=
EXTT22=
PLAYORDER=
